STARTFONT 2.1
FONT -FontForge-Toronto_29-Regular-R-Normal--29-290-72-72-P-159-MacRoman-0
SIZE 29 72 72
FONTBOUNDINGBOX 31 29 0 -6
COMMENT "Generated by fontforge, http://fontforge.sourceforge.net"
STARTPROPERTIES 31
FOUNDRY "FontForge"
FAMILY_NAME "Toronto_29"
WEIGHT_NAME "Regular"
SLANT "R"
SETWIDTH_NAME "Normal"
ADD_STYLE_NAME ""
PIXEL_SIZE 29
POINT_SIZE 290
RESOLUTION_X 72
RESOLUTION_Y 72
SPACING "P"
AVERAGE_WIDTH 159
CHARSET_REGISTRY "MacRoman"
CHARSET_ENCODING "0"
FONTNAME_REGISTRY ""
CHARSET_COLLECTIONS "MacRoman"
FONT_NAME "Toronto_29"
FACE_NAME "Toronto_29"
COPYRIGHT ""
FONT_VERSION "001.000"
FONT_ASCENT 23
FONT_DESCENT 6
UNDERLINE_POSITION -3
UNDERLINE_THICKNESS 2
X_HEIGHT 13
CAP_HEIGHT 17
RAW_ASCENT 800
RAW_DESCENT 200
NORM_SPACE 8
AVG_LOWERCASE_WIDTH 289
AVG_UPPERCASE_WIDTH 266
ENDPROPERTIES
CHARS 177
STARTCHAR uni0000
ENCODING 0
SWIDTH 0 0
DWIDTH 0 0
BBX 1 1 0 0
BITMAP
00
ENDCHAR
STARTCHAR uni0002
ENCODING 2
SWIDTH 0 0
DWIDTH 0 0
BBX 1 1 0 0
BITMAP
00
ENDCHAR
STARTCHAR uni0004
ENCODING 4
SWIDTH 0 0
DWIDTH 0 0
BBX 1 1 0 0
BITMAP
00
ENDCHAR
STARTCHAR uni0008
ENCODING 8
SWIDTH 0 0
DWIDTH 0 0
BBX 1 1 0 0
BITMAP
00
ENDCHAR
STARTCHAR uni000A
ENCODING 10
SWIDTH 0 0
DWIDTH 0 0
BBX 1 1 0 0
BITMAP
00
ENDCHAR
STARTCHAR uni000B
ENCODING 11
SWIDTH 0 0
DWIDTH 0 0
BBX 1 1 0 0
BITMAP
00
ENDCHAR
STARTCHAR uni000C
ENCODING 12
SWIDTH 0 0
DWIDTH 0 0
BBX 1 1 0 0
BITMAP
00
ENDCHAR
STARTCHAR uni000D
ENCODING 13
SWIDTH 0 0
DWIDTH 0 0
BBX 1 1 0 0
BITMAP
00
ENDCHAR
STARTCHAR uni001F
ENCODING 31
SWIDTH 0 0
DWIDTH 0 0
BBX 1 1 0 0
BITMAP
00
ENDCHAR
STARTCHAR space
ENCODING 32
SWIDTH 275 0
DWIDTH 8 0
BBX 1 1 8 -6
BITMAP
00
ENDCHAR
STARTCHAR exclam
ENCODING 33
SWIDTH 275 0
DWIDTH 8 0
BBX 1 18 4 0
BITMAP
80
80
80
80
80
80
80
80
80
80
80
80
80
80
00
00
80
80
ENDCHAR
STARTCHAR quotedbl
ENCODING 34
SWIDTH 344 0
DWIDTH 10 0
BBX 6 5 2 13
BITMAP
84
84
84
84
84
ENDCHAR
STARTCHAR numbersign
ENCODING 35
SWIDTH 620 0
DWIDTH 18 0
BBX 14 12 1 7
BITMAP
0420
0420
0420
7FFC
0840
0840
0840
0840
FFF8
1080
1080
1080
ENDCHAR
STARTCHAR dollar
ENCODING 36
SWIDTH 482 0
DWIDTH 14 0
BBX 9 22 2 -2
BITMAP
0800
0800
3E00
4900
8880
8880
8800
4800
2800
1800
0C00
0A00
0900
0880
0880
0880
8880
8880
4900
3E00
0800
0800
ENDCHAR
STARTCHAR percent
ENCODING 37
SWIDTH 620 0
DWIDTH 18 0
BBX 14 18 2 0
BITMAP
3DF8
4204
8104
8108
8110
8120
4240
3C80
0100
0200
04F0
0908
1204
2204
2204
4204
4108
40F0
ENDCHAR
STARTCHAR ampersand
ENCODING 38
SWIDTH 758 0
DWIDTH 22 0
BBX 16 17 4 0
BITMAP
0E00
1100
2100
2100
2200
1400
0800
1408
2208
4108
4090
8050
8020
8050
8088
4304
3C03
ENDCHAR
STARTCHAR quotesingle
ENCODING 39
SWIDTH 206 0
DWIDTH 6 0
BBX 1 5 2 13
BITMAP
80
80
80
80
80
ENDCHAR
STARTCHAR parenleft
ENCODING 40
SWIDTH 344 0
DWIDTH 10 0
BBX 5 22 2 -2
BITMAP
08
10
20
20
40
40
80
80
80
80
80
80
80
80
80
80
40
40
20
20
10
08
ENDCHAR
STARTCHAR parenright
ENCODING 41
SWIDTH 344 0
DWIDTH 10 0
BBX 5 22 3 -2
BITMAP
80
40
20
20
10
10
08
08
08
08
08
08
08
08
08
08
10
10
20
20
40
80
ENDCHAR
STARTCHAR asterisk
ENCODING 42
SWIDTH 482 0
DWIDTH 14 0
BBX 9 9 2 9
BITMAP
0800
8880
4900
2A00
1C00
2A00
4900
8880
0800
ENDCHAR
STARTCHAR plus
ENCODING 43
SWIDTH 482 0
DWIDTH 14 0
BBX 11 11 1 3
BITMAP
0400
0400
0400
0400
0400
FFE0
0400
0400
0400
0400
0400
ENDCHAR
STARTCHAR comma
ENCODING 44
SWIDTH 275 0
DWIDTH 8 0
BBX 2 5 4 -3
BITMAP
C0
40
40
40
80
ENDCHAR
STARTCHAR hyphen
ENCODING 45
SWIDTH 551 0
DWIDTH 16 0
BBX 12 1 2 8
BITMAP
FFF0
ENDCHAR
STARTCHAR period
ENCODING 46
SWIDTH 275 0
DWIDTH 8 0
BBX 1 2 4 0
BITMAP
80
80
ENDCHAR
STARTCHAR slash
ENCODING 47
SWIDTH 482 0
DWIDTH 14 0
BBX 9 18 2 0
BITMAP
0080
0080
0100
0100
0200
0200
0400
0400
0800
0800
1000
1000
2000
2000
4000
4000
8000
8000
ENDCHAR
STARTCHAR zero
ENCODING 48
SWIDTH 620 0
DWIDTH 18 0
BBX 14 18 2 0
BITMAP
0780
1860
2010
4008
4008
8004
8004
8004
8004
8004
8004
8004
8004
4008
4008
2010
1860
0780
ENDCHAR
STARTCHAR one
ENCODING 49
SWIDTH 620 0
DWIDTH 18 0
BBX 5 18 7 0
BITMAP
E0
20
20
20
20
20
20
20
20
20
20
20
20
20
20
20
20
F8
ENDCHAR
STARTCHAR two
ENCODING 50
SWIDTH 620 0
DWIDTH 18 0
BBX 14 18 2 0
BITMAP
0FE0
3010
4008
8008
8008
0010
0010
0020
0040
0080
0100
0200
0400
0800
1000
2004
4004
FFFC
ENDCHAR
STARTCHAR three
ENCODING 51
SWIDTH 620 0
DWIDTH 18 0
BBX 13 18 2 0
BITMAP
FFF8
8010
8020
0040
0080
0100
0380
0060
0010
0010
0008
8008
8008
8008
4010
4010
3060
0F80
ENDCHAR
STARTCHAR four
ENCODING 52
SWIDTH 620 0
DWIDTH 18 0
BBX 14 18 2 0
BITMAP
0010
0030
0050
0090
0110
0210
0410
0810
1010
2010
4010
FFFC
0010
0010
0010
0010
0010
007C
ENDCHAR
STARTCHAR five
ENCODING 53
SWIDTH 620 0
DWIDTH 18 0
BBX 14 18 2 0
BITMAP
7FF0
4000
4000
4000
4000
4000
7FC0
0030
0008
0008
0004
8004
8004
4004
4008
2008
1830
07C0
ENDCHAR
STARTCHAR six
ENCODING 54
SWIDTH 620 0
DWIDTH 18 0
BBX 14 18 2 0
BITMAP
0FC0
3030
4008
4000
8000
8000
8FC0
B030
C008
8008
8004
8004
8004
8004
4008
4008
3030
0FC0
ENDCHAR
STARTCHAR seven
ENCODING 55
SWIDTH 620 0
DWIDTH 18 0
BBX 14 18 2 0
BITMAP
FFFC
8004
8008
0008
0010
0010
0020
0020
0040
0040
0080
0080
0100
0100
0200
0200
0400
0400
ENDCHAR
STARTCHAR eight
ENCODING 56
SWIDTH 620 0
DWIDTH 18 0
BBX 14 18 2 0
BITMAP
1FE0
2010
4008
4008
4008
4008
2010
1FE0
2010
4008
8004
8004
8004
8004
8004
4008
3030
0FC0
ENDCHAR
STARTCHAR nine
ENCODING 57
SWIDTH 620 0
DWIDTH 18 0
BBX 14 18 2 0
BITMAP
0FC0
3030
4008
4008
8004
8004
8004
8004
4004
400C
3034
0FC4
0004
0004
0008
4008
3030
0FC0
ENDCHAR
STARTCHAR colon
ENCODING 58
SWIDTH 275 0
DWIDTH 8 0
BBX 1 14 4 0
BITMAP
80
80
00
00
00
00
00
00
00
00
00
00
80
80
ENDCHAR
STARTCHAR semicolon
ENCODING 59
SWIDTH 275 0
DWIDTH 8 0
BBX 2 17 3 -3
BITMAP
40
40
00
00
00
00
00
00
00
00
00
00
C0
40
40
40
80
ENDCHAR
STARTCHAR less
ENCODING 60
SWIDTH 413 0
DWIDTH 12 0
BBX 7 13 2 2
BITMAP
02
04
08
10
20
40
80
40
20
10
08
04
02
ENDCHAR
STARTCHAR equal
ENCODING 61
SWIDTH 482 0
DWIDTH 14 0
BBX 10 5 2 6
BITMAP
FFC0
0000
0000
0000
FFC0
ENDCHAR
STARTCHAR greater
ENCODING 62
SWIDTH 413 0
DWIDTH 12 0
BBX 7 13 3 2
BITMAP
80
40
20
10
08
04
02
04
08
10
20
40
80
ENDCHAR
STARTCHAR question
ENCODING 63
SWIDTH 620 0
DWIDTH 18 0
BBX 12 18 3 0
BITMAP
0F00
30C0
4020
8010
8010
0010
0010
0020
0040
0080
0100
0100
0200
0200
0000
0000
0200
0200
ENDCHAR
STARTCHAR at
ENCODING 64
SWIDTH 896 0
DWIDTH 26 0
BBX 18 17 4 -1
BITMAP
07F800
180600
200100
400080
400080
81F840
820840
840840
840840
840840
841840
822880
41C700
400000
200000
180000
07F000
ENDCHAR
STARTCHAR A
ENCODING 65
SWIDTH 758 0
DWIDTH 22 0
BBX 19 18 1 0
BITMAP
004000
004000
004000
00A000
00A000
011000
011000
020800
020800
040400
040400
080200
0FFE00
100100
100100
200080
200080
F803E0
ENDCHAR
STARTCHAR B
ENCODING 66
SWIDTH 689 0
DWIDTH 20 0
BBX 16 18 2 0
BITMAP
FFF0
2008
2004
2004
2004
2004
2008
3FF0
200C
2002
2002
2001
2001
2001
2002
2002
200C
FFF0
ENDCHAR
STARTCHAR C
ENCODING 67
SWIDTH 689 0
DWIDTH 20 0
BBX 15 18 2 0
BITMAP
07E0
1818
2004
4002
4000
8000
8000
8000
8000
8000
8000
8000
8000
4000
4002
2004
1818
07E0
ENDCHAR
STARTCHAR D
ENCODING 68
SWIDTH 689 0
DWIDTH 20 0
BBX 16 18 2 0
BITMAP
FFE0
2018
2004
2002
2002
2001
2001
2001
2001
2001
2001
2001
2001
2002
2002
2004
2018
FFE0
ENDCHAR
STARTCHAR E
ENCODING 69
SWIDTH 620 0
DWIDTH 18 0
BBX 14 18 2 0
BITMAP
FFFC
2004
2004
2000
2000
2000
2040
2040
3FC0
2040
2040
2000
2000
2000
2000
2004
2004
FFFC
ENDCHAR
STARTCHAR F
ENCODING 70
SWIDTH 620 0
DWIDTH 18 0
BBX 14 18 2 0
BITMAP
FFFC
2004
2004
2000
2000
2000
2080
2080
3F80
2080
2080
2000
2000
2000
2000
2000
2000
F800
ENDCHAR
STARTCHAR G
ENCODING 71
SWIDTH 689 0
DWIDTH 20 0
BBX 16 18 2 0
BITMAP
07E0
1818
2004
4002
4000
8000
8000
8000
8000
80FF
8001
8001
8001
4003
4003
2005
1819
07E1
ENDCHAR
STARTCHAR H
ENCODING 72
SWIDTH 689 0
DWIDTH 20 0
BBX 16 18 2 0
BITMAP
F81F
2004
2004
2004
2004
2004
2004
2004
3FFC
2004
2004
2004
2004
2004
2004
2004
2004
F81F
ENDCHAR
STARTCHAR I
ENCODING 73
SWIDTH 344 0
DWIDTH 10 0
BBX 5 18 2 0
BITMAP
F8
20
20
20
20
20
20
20
20
20
20
20
20
20
20
20
20
F8
ENDCHAR
STARTCHAR J
ENCODING 74
SWIDTH 689 0
DWIDTH 20 0
BBX 16 18 2 0
BITMAP
001F
0004
0004
0004
0004
0004
0004
0004
0004
0004
8004
8004
8004
4008
4008
2010
1860
0780
ENDCHAR
STARTCHAR K
ENCODING 75
SWIDTH 689 0
DWIDTH 20 0
BBX 16 18 2 0
BITMAP
F87E
2010
2020
2040
2080
2100
2200
2400
2800
3400
2200
2100
2080
2040
2020
2010
2008
F83F
ENDCHAR
STARTCHAR L
ENCODING 76
SWIDTH 620 0
DWIDTH 18 0
BBX 14 18 2 0
BITMAP
F800
2000
2000
2000
2000
2000
2000
2000
2000
2000
2000
2000
2000
2000
2004
2004
2004
FFFC
ENDCHAR
STARTCHAR M
ENCODING 77
SWIDTH 1172 0
DWIDTH 34 0
BBX 29 18 2 0
BITMAP
E1C01C00
26306300
28088080
30050040
30050040
20020020
20020020
20020020
20020020
20020020
20020020
20020020
20020020
20020020
20020020
20020020
20020020
F80F80F8
ENDCHAR
STARTCHAR N
ENCODING 78
SWIDTH 758 0
DWIDTH 22 0
BBX 18 18 2 0
BITMAP
E3E000
2C1800
300400
200200
200200
200100
200100
200100
200100
200100
200100
200100
200100
200100
200100
200100
200100
F807C0
ENDCHAR
STARTCHAR O
ENCODING 79
SWIDTH 689 0
DWIDTH 20 0
BBX 16 18 2 0
BITMAP
07E0
1818
2004
4002
4002
8001
8001
8001
8001
8001
8001
8001
8001
4002
4002
2004
1818
07E0
ENDCHAR
STARTCHAR P
ENCODING 80
SWIDTH 689 0
DWIDTH 20 0
BBX 15 18 2 0
BITMAP
FFE0
2018
2004
2004
2002
2002
2002
2002
2004
2004
2018
3FE0
2000
2000
2000
2000
2000
F800
ENDCHAR
STARTCHAR Q
ENCODING 81
SWIDTH 689 0
DWIDTH 20 0
BBX 16 18 2 0
BITMAP
07E0
1818
2004
4002
4002
8001
8001
8001
8001
8001
8001
8001
8021
4012
400A
2004
181A
07E1
ENDCHAR
STARTCHAR R
ENCODING 82
SWIDTH 758 0
DWIDTH 22 0
BBX 17 18 2 0
BITMAP
FFF000
200800
200400
200200
200200
200200
200200
200200
200400
200800
3FF000
204000
202000
201000
200800
200400
200200
F80F80
ENDCHAR
STARTCHAR S
ENCODING 83
SWIDTH 620 0
DWIDTH 18 0
BBX 13 18 2 0
BITMAP
3F88
4068
8018
8008
8008
8000
6000
1C00
0380
0060
0010
0008
0008
8008
8008
C010
B060
8F80
ENDCHAR
STARTCHAR T
ENCODING 84
SWIDTH 620 0
DWIDTH 18 0
BBX 13 18 2 0
BITMAP
FFF8
8208
8208
8208
0200
0200
0200
0200
0200
0200
0200
0200
0200
0200
0200
0200
0200
0F80
ENDCHAR
STARTCHAR U
ENCODING 85
SWIDTH 758 0
DWIDTH 22 0
BBX 18 18 2 0
BITMAP
F807C0
200100
200100
200100
200100
200100
200100
200100
200100
200100
200100
200100
200100
200100
100200
100200
0C0C00
03F000
ENDCHAR
STARTCHAR V
ENCODING 86
SWIDTH 758 0
DWIDTH 22 0
BBX 19 18 1 0
BITMAP
F803E0
200080
200080
100100
100100
080200
080200
040400
040400
020800
020800
011000
011000
00A000
00A000
004000
004000
004000
ENDCHAR
STARTCHAR W
ENCODING 87
SWIDTH 1034 0
DWIDTH 30 0
BBX 25 18 2 0
BITMAP
F8080F80
20080200
20080200
10140400
10140400
10140400
08220800
08220800
08220800
04411000
04411000
04411000
0280A000
0280A000
0280A000
01004000
01004000
01004000
ENDCHAR
STARTCHAR X
ENCODING 88
SWIDTH 758 0
DWIDTH 22 0
BBX 20 18 1 0
BITMAP
F801F0
200040
100080
080100
040200
020400
010800
009000
006000
006000
009000
010800
020400
040200
080100
100080
200040
FC01F0
ENDCHAR
STARTCHAR Y
ENCODING 89
SWIDTH 758 0
DWIDTH 22 0
BBX 19 18 1 0
BITMAP
F803E0
200080
100100
080200
040400
020800
011000
00A000
004000
004000
004000
004000
004000
004000
004000
004000
004000
01F000
ENDCHAR
STARTCHAR Z
ENCODING 90
SWIDTH 689 0
DWIDTH 20 0
BBX 14 18 2 0
BITMAP
FFFC
8004
8004
8008
0010
0020
0040
0080
0100
0200
0400
0800
1000
2000
4004
8004
8004
FFFC
ENDCHAR
STARTCHAR bracketleft
ENCODING 91
SWIDTH 344 0
DWIDTH 10 0
BBX 5 22 2 -2
BITMAP
F8
80
80
80
80
80
80
80
80
80
80
80
80
80
80
80
80
80
80
80
80
F8
ENDCHAR
STARTCHAR backslash
ENCODING 92
SWIDTH 482 0
DWIDTH 14 0
BBX 9 18 3 0
BITMAP
8000
8000
4000
4000
2000
2000
1000
1000
0800
0800
0400
0400
0200
0200
0100
0100
0080
0080
ENDCHAR
STARTCHAR bracketright
ENCODING 93
SWIDTH 344 0
DWIDTH 10 0
BBX 5 22 3 -2
BITMAP
F8
08
08
08
08
08
08
08
08
08
08
08
08
08
08
08
08
08
08
08
08
F8
ENDCHAR
STARTCHAR asciicircum
ENCODING 94
SWIDTH 482 0
DWIDTH 14 0
BBX 7 4 3 15
BITMAP
10
28
44
82
ENDCHAR
STARTCHAR underscore
ENCODING 95
SWIDTH 620 0
DWIDTH 18 0
BBX 18 1 0 0
BITMAP
FFFFC0
ENDCHAR
STARTCHAR grave
ENCODING 96
SWIDTH 344 0
DWIDTH 10 0
BBX 3 3 3 16
BITMAP
80
40
20
ENDCHAR
STARTCHAR a
ENCODING 97
SWIDTH 620 0
DWIDTH 18 0
BBX 16 14 1 0
BITMAP
07FC
1804
2004
4004
4004
8004
8004
8004
8004
4004
400C
2014
1864
0787
ENDCHAR
STARTCHAR b
ENCODING 98
SWIDTH 620 0
DWIDTH 18 0
BBX 16 18 1 0
BITMAP
E000
2000
2000
2000
21E0
2618
2804
3002
3002
2001
2001
2001
2001
3002
3002
2804
2618
E1E0
ENDCHAR
STARTCHAR c
ENCODING 99
SWIDTH 551 0
DWIDTH 16 0
BBX 13 14 1 0
BITMAP
07C0
1830
2008
4000
4000
8000
8000
8000
8000
4000
4000
2008
1830
07C0
ENDCHAR
STARTCHAR d
ENCODING 100
SWIDTH 620 0
DWIDTH 18 0
BBX 16 18 1 0
BITMAP
001C
0004
0004
0004
0784
1864
2014
400C
400C
8004
8004
8004
8004
400C
400C
2014
1864
0787
ENDCHAR
STARTCHAR e
ENCODING 101
SWIDTH 551 0
DWIDTH 16 0
BBX 14 14 1 0
BITMAP
0780
1860
2010
4008
4008
8004
FFFC
8000
8000
4008
4008
2010
1860
0780
ENDCHAR
STARTCHAR f
ENCODING 102
SWIDTH 344 0
DWIDTH 10 0
BBX 8 18 1 0
BITMAP
0F
10
20
20
FE
20
20
20
20
20
20
20
20
20
20
20
20
F8
ENDCHAR
STARTCHAR g
ENCODING 103
SWIDTH 620 0
DWIDTH 18 0
BBX 16 20 0 -6
BITMAP
0787
1864
2014
400C
400C
8004
8004
8004
8004
400C
400C
2014
1864
0784
0004
0008
0008
2010
1860
0780
ENDCHAR
STARTCHAR h
ENCODING 104
SWIDTH 689 0
DWIDTH 20 0
BBX 18 18 0 0
BITMAP
E00000
200000
200000
200000
21E000
261800
280400
300200
300200
200100
200100
200100
200100
200100
200100
200100
200100
F807C0
ENDCHAR
STARTCHAR i
ENCODING 105
SWIDTH 344 0
DWIDTH 10 0
BBX 5 18 3 0
BITMAP
20
20
00
00
E0
20
20
20
20
20
20
20
20
20
20
20
20
F8
ENDCHAR
STARTCHAR j
ENCODING 106
SWIDTH 482 0
DWIDTH 14 0
BBX 11 24 0 -6
BITMAP
0020
0020
0000
0000
00E0
0020
0020
0020
0020
0020
0020
0020
0020
0020
0020
0020
0020
0020
0020
0020
0040
8040
6180
1E00
ENDCHAR
STARTCHAR k
ENCODING 107
SWIDTH 551 0
DWIDTH 16 0
BBX 14 18 1 0
BITMAP
E000
2000
2000
2000
21F0
2080
2100
2200
2400
2800
3400
2200
2100
2080
2040
2020
2010
F87C
ENDCHAR
STARTCHAR l
ENCODING 108
SWIDTH 275 0
DWIDTH 8 0
BBX 5 18 1 0
BITMAP
E0
20
20
20
20
20
20
20
20
20
20
20
20
20
20
20
20
F8
ENDCHAR
STARTCHAR m
ENCODING 109
SWIDTH 1103 0
DWIDTH 32 0
BBX 29 14 1 0
BITMAP
E1C01C00
26306300
28088080
30050040
30050040
20020020
20020020
20020020
20020020
20020020
20020020
20020020
20020020
F80F80F8
ENDCHAR
STARTCHAR n
ENCODING 110
SWIDTH 689 0
DWIDTH 20 0
BBX 17 14 1 0
BITMAP
E1C000
263000
280800
300400
300400
200200
200200
200200
200200
200200
200200
200200
200200
F80F80
ENDCHAR
STARTCHAR o
ENCODING 111
SWIDTH 551 0
DWIDTH 16 0
BBX 14 14 1 0
BITMAP
0780
1860
2010
4008
4008
8004
8004
8004
8004
4008
4008
2010
1860
0780
ENDCHAR
STARTCHAR p
ENCODING 112
SWIDTH 620 0
DWIDTH 18 0
BBX 16 20 1 -6
BITMAP
E1E0
2618
2804
3002
3002
2001
2001
2001
2001
3002
3002
2804
2618
21E0
2000
2000
2000
2000
2000
F800
ENDCHAR
STARTCHAR q
ENCODING 113
SWIDTH 620 0
DWIDTH 18 0
BBX 16 20 1 -6
BITMAP
0784
1864
2014
400C
400C
8004
8004
8004
8004
400C
400C
2014
1864
0784
0004
0004
0004
0004
0004
001F
ENDCHAR
STARTCHAR r
ENCODING 114
SWIDTH 551 0
DWIDTH 16 0
BBX 15 14 0 0
BITMAP
E1E0
2618
2804
3002
3002
2000
2000
2000
2000
2000
2000
2000
2000
F800
ENDCHAR
STARTCHAR s
ENCODING 115
SWIDTH 482 0
DWIDTH 14 0
BBX 11 14 2 0
BITMAP
3F20
40A0
8060
8020
8000
6000
1F00
00C0
0020
8020
8020
C020
A040
9F80
ENDCHAR
STARTCHAR t
ENCODING 116
SWIDTH 413 0
DWIDTH 12 0
BBX 10 18 1 0
BITMAP
7000
1000
1000
1000
FF00
1000
1000
1000
1000
1000
1000
1000
1000
1040
1040
1040
0880
0700
ENDCHAR
STARTCHAR u
ENCODING 117
SWIDTH 689 0
DWIDTH 20 0
BBX 17 14 1 0
BITMAP
E00E00
200200
200200
200200
200200
200200
200200
200200
200200
100200
100600
080A00
063200
01C380
ENDCHAR
STARTCHAR v
ENCODING 118
SWIDTH 689 0
DWIDTH 20 0
BBX 17 14 1 0
BITMAP
F80F80
200200
100400
100400
080800
080800
041000
041000
022000
022000
014000
014000
008000
008000
ENDCHAR
STARTCHAR w
ENCODING 119
SWIDTH 965 0
DWIDTH 28 0
BBX 25 14 1 0
BITMAP
F8000F80
20000200
10000400
10000400
08080800
08080800
04141000
04141000
02222000
02222000
01414000
01414000
00808000
00808000
ENDCHAR
STARTCHAR x
ENCODING 120
SWIDTH 551 0
DWIDTH 16 0
BBX 15 14 0 0
BITMAP
F83E
2008
1010
0820
0440
0280
0100
0100
0280
0440
0820
1010
2008
F83E
ENDCHAR
STARTCHAR y
ENCODING 121
SWIDTH 689 0
DWIDTH 20 0
BBX 17 20 1 -6
BITMAP
F81F80
200200
200200
200200
200200
200200
200200
200200
200200
100600
100600
080A00
063200
01C200
000200
000400
000400
100800
0C3000
03C000
ENDCHAR
STARTCHAR z
ENCODING 122
SWIDTH 551 0
DWIDTH 16 0
BBX 14 14 1 0
BITMAP
FFFC
8008
8010
0020
0040
0080
0100
0200
0400
0800
1000
2004
4004
FFFC
ENDCHAR
STARTCHAR braceleft
ENCODING 123
SWIDTH 413 0
DWIDTH 12 0
BBX 7 22 2 -2
BITMAP
0E
10
20
20
20
20
20
20
20
40
80
40
20
20
20
20
20
20
20
20
10
0E
ENDCHAR
STARTCHAR bar
ENCODING 124
SWIDTH 206 0
DWIDTH 6 0
BBX 1 22 2 -2
BITMAP
80
80
80
80
80
80
80
80
80
80
80
80
80
80
80
80
80
80
80
80
80
80
ENDCHAR
STARTCHAR braceright
ENCODING 125
SWIDTH 413 0
DWIDTH 12 0
BBX 7 22 3 -2
BITMAP
E0
10
08
08
08
08
08
08
08
04
02
04
08
08
08
08
08
08
08
08
10
E0
ENDCHAR
STARTCHAR asciitilde
ENCODING 126
SWIDTH 551 0
DWIDTH 16 0
BBX 11 3 2 15
BITMAP
3820
4440
8380
ENDCHAR
STARTCHAR uni007F
ENCODING 127
SWIDTH 0 0
DWIDTH 0 0
BBX 1 1 0 -6
BITMAP
00
ENDCHAR
STARTCHAR Adieresis
ENCODING 128
SWIDTH 758 0
DWIDTH 22 0
BBX 19 22 1 0
BITMAP
011000
011000
000000
000000
004000
004000
004000
00A000
00A000
011000
011000
020800
020800
040400
040400
080200
0FFE00
100100
100100
200080
200080
F803E0
ENDCHAR
STARTCHAR Aring
ENCODING 129
SWIDTH 758 0
DWIDTH 22 0
BBX 19 23 1 0
BITMAP
00E000
011000
011000
011000
00E000
004000
004000
004000
00A000
00A000
011000
011000
020800
020800
040400
040400
080200
0FFE00
100100
100100
200080
200080
F803E0
ENDCHAR
STARTCHAR Ccedilla
ENCODING 130
SWIDTH 689 0
DWIDTH 20 0
BBX 15 24 2 -6
BITMAP
07E0
1818
2004
4002
4000
8000
8000
8000
8000
8000
8000
8000
8000
4000
4002
2004
1818
07E0
0080
00C0
0020
0020
0040
0080
ENDCHAR
STARTCHAR Eacute
ENCODING 131
SWIDTH 620 0
DWIDTH 18 0
BBX 14 23 2 0
BITMAP
0040
0080
0100
0000
0000
FFFC
2004
2004
2000
2000
2000
2040
2040
3FC0
2040
2040
2000
2000
2000
2000
2004
2004
FFFC
ENDCHAR
STARTCHAR Ntilde
ENCODING 132
SWIDTH 758 0
DWIDTH 22 0
BBX 18 23 2 0
BITMAP
070400
088800
107000
000000
000000
E3E000
2C1800
300400
200200
200200
200100
200100
200100
200100
200100
200100
200100
200100
200100
200100
200100
200100
F807C0
ENDCHAR
STARTCHAR Odieresis
ENCODING 133
SWIDTH 689 0
DWIDTH 20 0
BBX 16 22 2 0
BITMAP
0420
0420
0000
0000
07E0
1818
2004
4002
4002
8001
8001
8001
8001
8001
8001
8001
8001
4002
4002
2004
1818
07E0
ENDCHAR
STARTCHAR Udieresis
ENCODING 134
SWIDTH 758 0
DWIDTH 22 0
BBX 18 22 2 0
BITMAP
041000
041000
000000
000000
F807C0
200100
200100
200100
200100
200100
200100
200100
200100
200100
200100
200100
200100
200100
100200
100200
0C0C00
03F000
ENDCHAR
STARTCHAR aacute
ENCODING 135
SWIDTH 620 0
DWIDTH 18 0
BBX 16 19 1 0
BITMAP
0040
0080
0100
0000
0000
07FC
1804
2004
4004
4004
8004
8004
8004
8004
4004
400C
2014
1864
0787
ENDCHAR
STARTCHAR agrave
ENCODING 136
SWIDTH 620 0
DWIDTH 18 0
BBX 16 19 1 0
BITMAP
0200
0100
0080
0000
0000
07FC
1804
2004
4004
4004
8004
8004
8004
8004
4004
400C
2014
1864
0787
ENDCHAR
STARTCHAR acircumflex
ENCODING 137
SWIDTH 620 0
DWIDTH 18 0
BBX 16 20 1 0
BITMAP
0100
0280
0440
0820
0000
0000
07FC
1804
2004
4004
4004
8004
8004
8004
8004
4004
400C
2014
1864
0787
ENDCHAR
STARTCHAR adieresis
ENCODING 138
SWIDTH 620 0
DWIDTH 18 0
BBX 16 18 1 0
BITMAP
0420
0420
0000
0000
07FC
1804
2004
4004
4004
8004
8004
8004
8004
4004
400C
2014
1864
0787
ENDCHAR
STARTCHAR atilde
ENCODING 139
SWIDTH 620 0
DWIDTH 18 0
BBX 16 19 1 0
BITMAP
0704
0888
1070
0000
0000
07FC
1804
2004
4004
4004
8004
8004
8004
8004
4004
400C
2014
1864
0787
ENDCHAR
STARTCHAR aring
ENCODING 140
SWIDTH 620 0
DWIDTH 18 0
BBX 16 21 1 0
BITMAP
01C0
0220
0220
0220
01C0
0000
0000
07FC
1804
2004
4004
4004
8004
8004
8004
8004
4004
400C
2014
1864
0787
ENDCHAR
STARTCHAR ccedilla
ENCODING 141
SWIDTH 551 0
DWIDTH 16 0
BBX 13 20 1 -6
BITMAP
07C0
1830
2008
4000
4000
8000
8000
8000
8000
4000
4000
2008
1830
07C0
0100
0180
0040
0040
0080
0100
ENDCHAR
STARTCHAR eacute
ENCODING 142
SWIDTH 551 0
DWIDTH 16 0
BBX 14 19 1 0
BITMAP
0080
0100
0200
0000
0000
0780
1860
2010
4008
4008
8004
FFFC
8000
8000
4008
4008
2010
1860
0780
ENDCHAR
STARTCHAR egrave
ENCODING 143
SWIDTH 551 0
DWIDTH 16 0
BBX 14 19 1 0
BITMAP
0400
0200
0100
0000
0000
0780
1860
2010
4008
4008
8004
FFFC
8000
8000
4008
4008
2010
1860
0780
ENDCHAR
STARTCHAR ecircumflex
ENCODING 144
SWIDTH 551 0
DWIDTH 16 0
BBX 14 20 1 0
BITMAP
0100
0280
0440
0820
0000
0000
0780
1860
2010
4008
4008
8004
FFFC
8000
8000
4008
4008
2010
1860
0780
ENDCHAR
STARTCHAR edieresis
ENCODING 145
SWIDTH 551 0
DWIDTH 16 0
BBX 14 18 1 0
BITMAP
0840
0840
0000
0000
0780
1860
2010
4008
4008
8004
FFFC
8000
8000
4008
4008
2010
1860
0780
ENDCHAR
STARTCHAR iacute
ENCODING 146
SWIDTH 344 0
DWIDTH 10 0
BBX 5 19 3 0
BITMAP
10
20
40
00
00
E0
20
20
20
20
20
20
20
20
20
20
20
20
F8
ENDCHAR
STARTCHAR igrave
ENCODING 147
SWIDTH 344 0
DWIDTH 10 0
BBX 5 19 2 0
BITMAP
80
40
20
00
00
E0
20
20
20
20
20
20
20
20
20
20
20
20
F8
ENDCHAR
STARTCHAR icircumflex
ENCODING 148
SWIDTH 482 0
DWIDTH 14 0
BBX 7 19 2 0
BITMAP
10
28
44
82
00
38
08
08
08
08
08
08
08
08
08
08
08
08
3E
ENDCHAR
STARTCHAR idieresis
ENCODING 149
SWIDTH 344 0
DWIDTH 10 0
BBX 6 18 1 0
BITMAP
84
84
00
00
70
10
10
10
10
10
10
10
10
10
10
10
10
7C
ENDCHAR
STARTCHAR ntilde
ENCODING 150
SWIDTH 689 0
DWIDTH 20 0
BBX 17 19 1 0
BITMAP
070400
088800
107000
000000
000000
E1C000
263000
280800
300400
300400
200200
200200
200200
200200
200200
200200
200200
200200
F80F80
ENDCHAR
STARTCHAR oacute
ENCODING 151
SWIDTH 551 0
DWIDTH 16 0
BBX 14 19 1 0
BITMAP
0080
0100
0200
0000
0000
0780
1860
2010
4008
4008
8004
8004
8004
8004
4008
4008
2010
1860
0780
ENDCHAR
STARTCHAR ograve
ENCODING 152
SWIDTH 551 0
DWIDTH 16 0
BBX 14 19 1 0
BITMAP
0400
0200
0100
0000
0000
0780
1860
2010
4008
4008
8004
8004
8004
8004
4008
4008
2010
1860
0780
ENDCHAR
STARTCHAR ocircumflex
ENCODING 153
SWIDTH 551 0
DWIDTH 16 0
BBX 14 20 1 0
BITMAP
0100
0280
0440
0820
0000
0000
0780
1860
2010
4008
4008
8004
8004
8004
8004
4008
4008
2010
1860
0780
ENDCHAR
STARTCHAR odieresis
ENCODING 154
SWIDTH 551 0
DWIDTH 16 0
BBX 14 18 1 0
BITMAP
0840
0840
0000
0000
0780
1860
2010
4008
4008
8004
8004
8004
8004
4008
4008
2010
1860
0780
ENDCHAR
STARTCHAR otilde
ENCODING 155
SWIDTH 551 0
DWIDTH 16 0
BBX 14 19 1 0
BITMAP
0E08
1110
20E0
0000
0000
0780
1860
2010
4008
4008
8004
8004
8004
8004
4008
4008
2010
1860
0780
ENDCHAR
STARTCHAR uacute
ENCODING 156
SWIDTH 689 0
DWIDTH 20 0
BBX 17 19 1 0
BITMAP
008000
010000
020000
000000
000000
E00E00
200200
200200
200200
200200
200200
200200
200200
200200
100200
100600
080A00
063200
01C380
ENDCHAR
STARTCHAR ugrave
ENCODING 157
SWIDTH 689 0
DWIDTH 20 0
BBX 17 19 1 0
BITMAP
020000
010000
008000
000000
000000
E00E00
200200
200200
200200
200200
200200
200200
200200
200200
100200
100600
080A00
063200
01C380
ENDCHAR
STARTCHAR ucircumflex
ENCODING 158
SWIDTH 689 0
DWIDTH 20 0
BBX 17 20 1 0
BITMAP
010000
028000
044000
082000
000000
000000
E00E00
200200
200200
200200
200200
200200
200200
200200
200200
100200
100600
080A00
063200
01C380
ENDCHAR
STARTCHAR udieresis
ENCODING 159
SWIDTH 689 0
DWIDTH 20 0
BBX 17 17 1 0
BITMAP
042000
000000
000000
E00E00
200200
200200
200200
200200
200200
200200
200200
200200
100200
100600
080A00
063200
01C380
ENDCHAR
STARTCHAR dagger
ENCODING 160
SWIDTH 275 0
DWIDTH 8 0
BBX 5 10 1 10
BITMAP
20
20
20
F8
20
20
20
20
20
20
ENDCHAR
STARTCHAR degree
ENCODING 161
SWIDTH 344 0
DWIDTH 10 0
BBX 5 5 2 13
BITMAP
70
88
88
88
70
ENDCHAR
STARTCHAR cent
ENCODING 162
SWIDTH 551 0
DWIDTH 16 0
BBX 13 18 1 0
BITMAP
0100
0100
07C0
1930
2108
4100
4100
8100
8100
8100
8100
4100
4100
2108
1930
07C0
0100
0100
ENDCHAR
STARTCHAR sterling
ENCODING 163
SWIDTH 620 0
DWIDTH 18 0
BBX 14 18 2 0
BITMAP
0F80
1040
2000
2000
2000
2000
2000
2000
FC00
2000
2000
2000
2000
2004
2004
2004
2008
FFF0
ENDCHAR
STARTCHAR section
ENCODING 164
SWIDTH 482 0
DWIDTH 14 0
BBX 10 20 2 -1
BITMAP
3E00
4180
8040
8040
8000
6000
5800
8600
8100
8080
4040
2040
1840
0680
0180
0040
8040
8040
6080
1F00
ENDCHAR
STARTCHAR bullet
ENCODING 165
SWIDTH 482 0
DWIDTH 14 0
BBX 10 10 2 4
BITMAP
1E00
7F80
7F80
FFC0
FFC0
FFC0
FFC0
7F80
7F80
1E00
ENDCHAR
STARTCHAR paragraph
ENCODING 166
SWIDTH 689 0
DWIDTH 20 0
BBX 16 18 2 0
BITMAP
0FFF
3024
4024
4024
8024
8024
8024
8024
4024
4024
3024
0FE4
0024
0024
0024
0024
0024
00FF
ENDCHAR
STARTCHAR germandbls
ENCODING 167
SWIDTH 551 0
DWIDTH 16 0
BBX 15 18 0 0
BITMAP
03E0
0C10
1008
1008
2008
2008
2010
23E0
2018
2004
2004
2002
2002
2002
2004
2004
2018
E7E0
ENDCHAR
STARTCHAR registered
ENCODING 168
SWIDTH 689 0
DWIDTH 20 0
BBX 16 16 2 0
BITMAP
07E0
1818
2004
4002
47C2
8421
8421
8421
87C1
8481
8441
4422
4002
2004
1818
07E0
ENDCHAR
STARTCHAR copyright
ENCODING 169
SWIDTH 689 0
DWIDTH 20 0
BBX 16 16 2 0
BITMAP
07E0
1818
2004
4002
43C2
8421
8801
8801
8801
8801
8421
43C2
4002
2004
1818
07E0
ENDCHAR
STARTCHAR trademark
ENCODING 170
SWIDTH 758 0
DWIDTH 22 0
BBX 16 7 2 11
BITMAP
F901
2183
2145
2129
2111
2101
2101
ENDCHAR
STARTCHAR acute
ENCODING 171
SWIDTH 344 0
DWIDTH 10 0
BBX 3 3 3 15
BITMAP
20
40
80
ENDCHAR
STARTCHAR dieresis
ENCODING 172
SWIDTH 413 0
DWIDTH 12 0
BBX 6 2 3 16
BITMAP
84
84
ENDCHAR
STARTCHAR notequal
ENCODING 173
SWIDTH 482 0
DWIDTH 14 0
BBX 11 9 1 4
BITMAP
0040
0080
FFE0
0200
0400
0800
FFE0
2000
4000
ENDCHAR
STARTCHAR AE
ENCODING 174
SWIDTH 896 0
DWIDTH 26 0
BBX 22 18 2 0
BITMAP
00FFFC
006004
006004
00A000
00A000
012000
012040
022040
03FFC0
042040
042040
082000
082000
102000
102000
202004
202004
F8FFFC
ENDCHAR
STARTCHAR Oslash
ENCODING 175
SWIDTH 689 0
DWIDTH 20 0
BBX 16 18 2 0
BITMAP
07E1
181A
2004
400A
4012
8021
8021
8041
8081
8101
8201
8401
8401
4802
5002
2004
5818
87E0
ENDCHAR
STARTCHAR yen
ENCODING 180
SWIDTH 620 0
DWIDTH 18 0
BBX 13 18 2 0
BITMAP
8008
4010
2020
1040
0880
3DE0
0200
0200
0200
0200
3FE0
0200
0200
0200
0200
0200
0200
0200
ENDCHAR
STARTCHAR ordfeminine
ENCODING 187
SWIDTH 551 0
DWIDTH 16 0
BBX 12 13 2 5
BITMAP
1FC0
6040
4040
8040
8040
8040
8040
40C0
6140
1E70
0000
0000
FFF0
ENDCHAR
STARTCHAR ordmasculine
ENCODING 188
SWIDTH 482 0
DWIDTH 14 0
BBX 10 13 2 5
BITMAP
1E00
6180
4080
8040
8040
8040
8040
4080
6180
1E00
0000
0000
FFC0
ENDCHAR
STARTCHAR ae
ENCODING 190
SWIDTH 965 0
DWIDTH 28 0
BBX 26 14 1 0
BITMAP
07F87800
18098600
200A0100
400C0080
400C0080
80080040
800FFFC0
80080000
80080000
400C0080
401C0080
202A0100
18C98600
070C7800
ENDCHAR
STARTCHAR oslash
ENCODING 191
SWIDTH 551 0
DWIDTH 16 0
BBX 14 14 1 0
BITMAP
0784
1868
2010
4028
4048
8084
8104
8204
8404
4808
5008
2010
5860
8780
ENDCHAR
STARTCHAR questiondown
ENCODING 192
SWIDTH 551 0
DWIDTH 16 0
BBX 12 18 2 0
BITMAP
0400
0400
0000
0000
0400
0400
0800
0800
1000
2000
4000
8000
8000
8010
8010
4020
30C0
0F00
ENDCHAR
STARTCHAR exclamdown
ENCODING 193
SWIDTH 275 0
DWIDTH 8 0
BBX 1 18 2 0
BITMAP
80
80
00
00
80
80
80
80
80
80
80
80
80
80
80
80
80
80
ENDCHAR
STARTCHAR guillemotleft
ENCODING 199
SWIDTH 620 0
DWIDTH 18 0
BBX 13 13 1 0
BITMAP
0208
0410
0820
1040
2080
4100
8200
4100
2080
1040
0820
0410
0208
ENDCHAR
STARTCHAR guillemotright
ENCODING 200
SWIDTH 620 0
DWIDTH 18 0
BBX 13 13 4 0
BITMAP
8200
4100
2080
1040
0820
0410
0208
0410
0820
1040
2080
4100
8200
ENDCHAR
STARTCHAR ellipsis
ENCODING 201
SWIDTH 620 0
DWIDTH 18 0
BBX 13 2 3 0
BITMAP
8208
8208
ENDCHAR
STARTCHAR Agrave
ENCODING 203
SWIDTH 758 0
DWIDTH 22 0
BBX 19 23 1 0
BITMAP
008000
004000
002000
000000
000000
004000
004000
004000
00A000
00A000
011000
011000
020800
020800
040400
040400
080200
0FFE00
100100
100100
200080
200080
F803E0
ENDCHAR
STARTCHAR Atilde
ENCODING 204
SWIDTH 758 0
DWIDTH 22 0
BBX 19 22 1 0
BITMAP
038200
044400
083800
000000
004000
004000
004000
00A000
00A000
011000
011000
020800
020800
040400
040400
080200
0FFE00
100100
100100
200080
200080
F803E0
ENDCHAR
STARTCHAR Otilde
ENCODING 205
SWIDTH 689 0
DWIDTH 20 0
BBX 16 23 2 0
BITMAP
0704
0888
1070
0000
0000
07E0
1818
2004
4002
4002
8001
8001
8001
8001
8001
8001
8001
8001
4002
4002
2004
1818
07E0
ENDCHAR
STARTCHAR OE
ENCODING 206
SWIDTH 965 0
DWIDTH 28 0
BBX 24 18 2 0
BITMAP
078FFF
186801
201801
400800
400800
800800
800820
800820
800FE0
800820
800820
800800
800800
400800
400800
201801
186801
078FFF
ENDCHAR
STARTCHAR oe
ENCODING 207
SWIDTH 965 0
DWIDTH 28 0
BBX 27 14 0 0
BITMAP
07803C00
1860C300
20110080
400A0040
400A0040
80040020
8007FFE0
80040000
80040000
400A0000
400A0040
20110080
1860C300
07803C00
ENDCHAR
STARTCHAR endash
ENCODING 208
SWIDTH 482 0
DWIDTH 14 0
BBX 10 1 2 8
BITMAP
FFC0
ENDCHAR
STARTCHAR emdash
ENCODING 209
SWIDTH 551 0
DWIDTH 16 0
BBX 15 1 0 8
BITMAP
FFFE
ENDCHAR
STARTCHAR quotedblleft
ENCODING 210
SWIDTH 413 0
DWIDTH 12 0
BBX 7 5 2 13
BITMAP
42
84
84
84
C6
ENDCHAR
STARTCHAR quotedblright
ENCODING 211
SWIDTH 413 0
DWIDTH 12 0
BBX 7 5 3 13
BITMAP
C6
42
42
42
84
ENDCHAR
STARTCHAR quoteleft
ENCODING 212
SWIDTH 275 0
DWIDTH 8 0
BBX 2 5 2 13
BITMAP
40
80
80
80
C0
ENDCHAR
STARTCHAR quoteright
ENCODING 213
SWIDTH 275 0
DWIDTH 8 0
BBX 2 5 3 13
BITMAP
C0
40
40
40
80
ENDCHAR
STARTCHAR lozenge
ENCODING 215
SWIDTH 620 0
DWIDTH 18 0
BBX 15 15 1 2
BITMAP
0100
0280
0440
0820
1010
2008
4004
8002
4004
2008
1010
0820
0440
0280
0100
ENDCHAR
STARTCHAR ydieresis
ENCODING 216
SWIDTH 689 0
DWIDTH 20 0
BBX 17 24 1 -6
BITMAP
042000
042000
000000
000000
F81F80
200200
200200
200200
200200
200200
200200
200200
200200
100600
100600
080A00
063200
01C200
000200
000400
000400
100800
0C3000
03C000
ENDCHAR
STARTCHAR Ydieresis
ENCODING 217
SWIDTH 551 0
DWIDTH 16 0
BBX 16 16 0 2
BITMAP
001E
006F
005C
00F0
0080
0100
03E0
0C18
1206
E181
01E0
00D0
00E8
0078
0018
0004
ENDCHAR
ENDFONT
